<?xml version="1.0" standalone="no"?>
<!DOCTYPE svg PUBLIC "-//W3C//DTD SVG 1.0//EN" "http://www.w3.org/TR/2001/REC-SVG-20010904/DTD/svg10.dtd">
<svg xmlns="http://www.w3.org/2000/svg" xmlns:xlink="http://www.w3.org/1999/xlink" id="body_1" width="22" height="22">

<g transform="matrix(0.5500001 0 0 0.5500001 0 0)">
	<g>
        <path d="M13.585938 34.328125L0.585938 21.328125C -0.195312 20.546875 -0.195312 19.28125 0.585938 18.5L0.585938 18.5L3.414062 15.671875C 4.195312 14.890625 5.460938 14.890625 6.242188 15.671875L6.242188 15.671875L15 24.429688L33.757812 5.671875C 34.539062 4.890625 35.804688 4.890625 36.585938 5.671875L36.585938 5.671875L39.414062 8.5C 40.195312 9.28125 40.195312 10.546875 39.414062 11.328125L39.414062 11.328125L16.414062 34.328125C 15.632812 35.109375 14.367188 35.109375 13.585938 34.328125z" stroke="none" fill="#99E2D0" fill-rule="nonzero" />
	</g>
</g>
</svg>