<?xml version="1.0" encoding="UTF-8"?>
<svg xmlns="http://www.w3.org/2000/svg" xmlns:xlink="http://www.w3.org/1999/xlink" width="50px" height="50px" viewBox="0 0 50 50" version="1.1">
<g id="surface1">
<path style=" stroke:none;fill-rule:nonzero;fill:rgb(0%,0%,0%);fill-opacity:1;" d="M 20.078125 14.730469 C 17.289062 14.9375 14.878906 16.890625 14.097656 19.574219 C 13.871094 20.347656 13.84375 20.582031 13.851562 21.523438 C 13.851562 22.28125 13.863281 22.457031 13.941406 22.8125 C 14.195312 24.007812 14.6875 25.035156 15.433594 25.921875 C 15.601562 26.109375 17.816406 28.355469 20.367188 30.898438 L 25 35.53125 L 29.78125 30.742188 C 32.816406 27.699219 34.644531 25.84375 34.800781 25.640625 C 35.414062 24.808594 35.816406 23.949219 36.03125 22.96875 C 36.441406 21.128906 36.058594 19.203125 35 17.640625 C 34.6875 17.183594 34.15625 16.597656 33.734375 16.25 C 31.839844 14.703125 29.292969 14.28125 26.996094 15.140625 C 26.363281 15.375 25.859375 15.660156 25.277344 16.089844 L 25 16.292969 L 24.839844 16.15625 C 24.105469 15.582031 22.984375 15.042969 21.992188 14.84375 C 21.679688 14.78125 20.660156 14.671875 20.53125 14.6875 C 20.507812 14.691406 20.308594 14.710938 20.078125 14.730469 Z M 21.875 15.902344 C 22.953125 16.167969 23.828125 16.640625 24.652344 17.421875 L 25.015625 17.769531 L 25.394531 17.398438 C 26.207031 16.625 27.113281 16.136719 28.203125 15.894531 C 28.558594 15.816406 28.714844 15.796875 29.390625 15.796875 C 30.269531 15.796875 30.53125 15.84375 31.25 16.078125 C 32.925781 16.636719 34.261719 17.984375 34.820312 19.648438 C 35.035156 20.289062 35.078125 20.582031 35.113281 21.3125 C 35.121094 21.871094 35.113281 22.046875 35.042969 22.4375 C 34.90625 23.28125 34.609375 24.019531 34.140625 24.730469 C 33.921875 25.054688 33.382812 25.609375 29.453125 29.546875 L 25 34 L 20.660156 29.671875 C 17.582031 26.597656 16.246094 25.21875 16.050781 24.960938 C 15.453125 24.183594 15.078125 23.265625 14.9375 22.265625 C 14.515625 19.183594 16.636719 16.34375 19.722656 15.84375 C 20.25 15.746094 21.34375 15.785156 21.875 15.902344 Z M 21.875 15.902344 "/>
</g>
</svg>
